<svg width="35" height="39" viewBox="0 0 35 39" fill="none" xmlns="http://www.w3.org/2000/svg">
<path fill-rule="evenodd" clip-rule="evenodd" d="M21.7358 20.5125C21.621 20.6292 21.5566 20.7864 21.5566 20.9501C21.5566 21.1138 21.621 21.271 21.7358 21.3877C22.7621 22.2734 24.0639 22.7755 25.4191 22.8085C25.4191 23.1909 25.4191 23.5893 25.5311 23.9718C25.5391 24.1312 25.6082 24.2814 25.7239 24.3913C25.8395 24.5013 25.9931 24.5626 26.1527 24.5626C26.3123 24.5626 26.4658 24.5013 26.5815 24.3913C26.6972 24.2814 26.7662 24.1312 26.7743 23.9718V22.8405C27.1956 22.8 27.61 22.7253 28.0175 22.6165C28.461 22.5243 28.8808 22.3417 29.2508 22.0801C29.6207 21.8186 29.9328 21.4837 30.1677 21.0963C30.4026 20.7089 30.5552 20.2773 30.6161 19.8284C30.677 19.3795 30.6448 18.9228 30.5215 18.4869C30.4247 18.0672 30.2168 17.6813 29.9195 17.3697C29.6222 17.058 29.2465 16.8321 28.8319 16.7157C28.2529 16.5737 27.655 16.5251 27.0607 16.5716V14.5652C27.6111 14.6068 28.1503 14.7412 28.6559 14.9652C28.7855 15.0267 28.9338 15.0361 29.0702 14.9914C29.2065 14.9468 29.3206 14.8515 29.3887 14.7252C29.4561 14.5981 29.4704 14.4494 29.4284 14.3118C29.3864 14.1741 29.2916 14.0587 29.1647 13.9908C28.4875 13.633 27.7553 13.3907 26.9983 13.274V10.9444C27.0113 10.7985 26.9667 10.6533 26.874 10.54C26.7812 10.4266 26.6478 10.3541 26.5023 10.338C26.3586 10.3255 26.216 10.3706 26.1056 10.4633C25.9952 10.556 25.9261 10.6888 25.9135 10.8324C25.7535 11.5972 25.6415 12.4276 25.4975 13.1764C25.0895 13.186 24.6814 13.2452 24.2862 13.3524C23.9334 13.415 23.5968 13.5483 23.2966 13.7441C22.9964 13.94 22.7389 14.1944 22.5395 14.4922C22.34 14.7899 22.2027 15.1249 22.1358 15.477C22.0689 15.8291 22.0738 16.1911 22.1502 16.5412C22.2334 17.4037 22.803 18.1413 23.6174 18.4389C24.0686 18.5909 24.5438 18.6677 25.0206 18.6629V19.3797C25.0206 20.0485 25.1487 20.6869 25.2287 21.3413C24.268 21.3878 23.321 21.1 22.5486 20.5269C22.4374 20.4276 22.2943 20.3713 22.1452 20.3684C21.9961 20.3654 21.8508 20.4176 21.7358 20.5125ZM28.1135 18.6277C28.3535 18.6277 28.5615 18.7237 28.6399 18.9957C29.0239 20.1589 28.0815 20.8133 26.9503 21.1157L27.0463 19.3621V18.5973C27.4025 18.5589 27.7583 18.5679 28.1135 18.6277ZM24.0318 16.1604C23.8078 15.2516 24.4782 14.8212 25.2911 14.5652C25.2911 14.8212 25.1951 15.0596 25.1631 15.3156C25.1311 15.5716 25.163 16.1284 25.083 16.5268C24.9028 16.5428 24.7225 16.5428 24.5422 16.5268C24.3182 16.5268 24.0942 16.4468 24.0302 16.1588" fill="#216587"/>
<path fill-rule="evenodd" clip-rule="evenodd" d="M34.5877 10.5126C34.4008 7.45808 34.0654 4.41444 33.5829 1.39248C33.5605 1.29435 33.5125 1.20901 33.4389 1.13648C33.3301 1.02928 33.4389 1.13648 33.4389 1.04048C33.3372 0.910395 33.1892 0.824616 33.0259 0.801061C32.8625 0.777507 32.6963 0.817998 32.562 0.914077C32.0212 1.29808 31.1604 2.11089 30.314 2.7317C29.4692 3.35411 29.8996 3.64051 27.1252 1.01008C26.8811 0.753594 26.6202 0.513596 26.3444 0.291668C26.2071 0.194583 26.0483 0.132223 25.8817 0.10993C25.7151 0.0876366 25.5455 0.106075 25.3875 0.163666C24.8915 0.363669 24.4499 0.675673 24.0963 1.07408C23.4563 1.72689 22.8515 2.6677 22.3731 3.13011C21.7744 2.32537 21.1079 1.57329 20.3811 0.882076C20.0746 0.560815 19.6972 0.315666 19.2791 0.166204C18.861 0.0167423 18.4137 -0.032892 17.973 0.0212644C17.4191 0.150686 16.9148 0.43869 16.5218 0.850076C15.8754 1.59889 15.2797 2.38556 14.7346 3.21011C14.5394 3.53651 14.2706 3.81492 13.9538 4.02452C13.7458 3.78452 13.5394 3.44851 13.4914 3.40051L10.1905 0.565272C10.0874 0.471518 9.95227 0.420911 9.81294 0.423888C9.67361 0.426865 9.54074 0.4832 9.44173 0.581272C9.23693 0.786075 9.44173 0.677273 9.44173 0.709274C9.34884 0.755267 9.27008 0.825473 9.21376 0.912488C9.15744 0.999503 9.12565 1.1001 9.12173 1.20368C9.12173 4.88693 9.12173 8.57018 9.23373 12.2534V19.5399C9.23373 21.0552 9.23373 22.5544 9.02572 24.084C9.00677 24.2255 9.0426 24.3689 9.12587 24.4849C9.20914 24.6009 9.33358 24.6807 9.47373 24.708C9.61639 24.7218 9.75905 24.6818 9.87385 24.596C9.98865 24.5102 10.0673 24.3847 10.0945 24.244C10.7345 21.196 11.0962 18.0951 11.1794 14.9799C11.1794 13.1302 11.1794 11.2646 11.0034 9.41499C11.0354 7.07096 10.7169 4.80693 10.4785 2.3989L12.4866 4.44053C12.7511 4.7744 13.0332 5.09333 13.333 5.39734C13.4316 5.4856 13.5482 5.55136 13.6747 5.59004C13.8013 5.62872 13.9347 5.6394 14.0658 5.62134C14.6002 5.52054 15.0946 5.26454 15.485 4.88533C16.0653 4.31572 16.597 3.70505 17.0802 3.05331C17.4946 2.5893 17.861 2.11249 18.3235 2.04849C18.4515 2.04849 18.5635 2.12849 18.6755 2.20849C18.9229 2.37916 19.1512 2.57543 19.3603 2.7973C20.2851 3.73812 21.1619 5.01333 21.7203 5.46134C21.9534 5.59588 22.2238 5.65144 22.4911 5.61972C22.7584 5.588 23.0083 5.47071 23.2035 5.28534L23.8403 4.55093C24.3043 4.04212 24.8771 3.08531 25.4355 2.3989C25.5006 2.3061 25.5753 2.22076 25.6595 2.14289C25.7065 2.22289 25.7646 2.29223 25.834 2.3509C26.106 2.5749 27.0932 3.81812 27.8276 4.42453C28.1556 4.72853 28.5764 4.91413 29.0228 4.95093C29.6411 4.84606 30.2194 4.57569 30.6964 4.16852C31.3044 3.69012 31.9092 3.10131 32.4516 2.5749C32.7116 5.22555 32.8712 7.88509 32.9301 10.5478C32.9301 13.5447 32.9301 16.5431 32.722 19.6039C32.626 21.916 32.53 24.276 32.2436 26.5896C32.0667 28.0875 31.7518 29.5658 31.3028 31.0057C30.7652 32.5068 29.7296 33.7785 28.3684 34.6089C27.7667 35.0568 27.0422 35.3092 26.2925 35.3321C25.5428 35.3549 24.8042 35.1472 24.1763 34.7369C23.5607 34.2767 23.0718 33.6679 22.7555 32.9673C22.2534 31.8133 21.9411 30.5857 21.8307 29.3321C21.8106 29.1685 21.7282 29.019 21.6006 28.9147C21.4731 28.8104 21.3102 28.7593 21.1459 28.7721C21.0041 28.7896 20.8734 28.8577 20.7779 28.9641C21.0371 28.6953 21.3086 28.4403 21.5923 28.1993C21.671 28.1569 21.7396 28.0981 21.7936 28.0269C21.8475 27.9557 21.8855 27.8737 21.9049 27.7865C21.9244 27.6993 21.9248 27.6089 21.9062 27.5215C21.8876 27.4341 21.8504 27.3518 21.7971 27.28C21.7438 27.2083 21.6757 27.1489 21.5974 27.1058C21.5191 27.0627 21.4325 27.037 21.3434 27.0304C21.2543 27.0238 21.1648 27.0365 21.081 27.0675C20.9973 27.0986 20.9212 27.1473 20.8579 27.2104C20.2371 27.6264 19.2643 28.5817 18.3875 29.1881L17.9714 29.4761C17.7609 29.2687 17.5317 29.0813 17.2866 28.9161C16.4611 27.9945 15.5828 27.1215 14.6562 26.3016C14.2329 25.9553 13.7039 25.7639 13.157 25.7592C12.6387 25.8572 12.1614 26.1073 11.7858 26.4776C11.1287 27.1752 10.5388 27.9246 10.0161 28.7257C9.63213 28.3097 9.18573 27.6408 8.70732 27.1304C8.37375 26.771 7.95819 26.4977 7.4961 26.3336C7.34955 26.2891 7.19496 26.2774 7.04338 26.2996C6.89181 26.3217 6.747 26.377 6.61929 26.4616C6.36916 26.6614 6.13436 26.8796 5.91688 27.1144L4.11526 29.4409L3.82725 29.2809L0.862412 27.1288C0.759595 27.0649 0.637434 27.0394 0.517626 27.057C0.397817 27.0746 0.288115 27.134 0.208003 27.2248H0.128002C0.0539645 27.3099 0.00910769 27.4164 0 27.5288L0.176002 31.9129C0.254832 32.9734 0.585389 33.9997 1.14025 34.9069C1.69511 35.814 2.45828 36.5758 3.36645 37.129C5.15504 38.147 7.22081 38.5706 9.26573 38.3386C10.1425 38.2586 11.8018 38.2266 13.7458 38.1626C15.6914 38.1002 18.4179 37.9402 20.6035 37.7978C23.1646 37.5881 25.7102 37.2205 28.226 36.697C29.3806 36.2608 30.4326 35.5909 31.3162 34.7291C32.1997 33.8673 32.8957 32.8323 33.3605 31.6889C33.8965 30.1369 34.2709 28.5353 34.4757 26.9048C34.7605 24.5219 34.9098 22.1304 34.9237 19.7303C34.9557 16.5895 34.8117 13.5575 34.5877 10.5126ZM22.2003 36.1402H13.0962C11.389 36.1402 9.90574 36.1402 9.12493 36.2362C7.49117 36.4868 5.8199 36.2252 4.34086 35.4874C3.63695 35.1155 3.0278 34.587 2.56038 33.9426C2.09295 33.2982 1.77972 32.5551 1.64482 31.7705L1.29442 28.8697L1.40642 28.9657C1.94883 29.4425 2.45923 29.9369 3.00164 30.4313C3.00164 30.4313 3.46405 30.9273 3.63845 31.0857C3.84325 31.2777 4.13606 31.3449 4.40486 31.2617C4.75687 31.1289 5.07367 30.9161 5.32967 30.6377C5.96648 30.0329 6.76489 28.9161 7.2273 28.5497L8.82092 30.3673C8.82092 30.3673 9.26893 30.8153 9.44333 30.9753C9.66447 31.1671 9.94739 31.2727 10.2401 31.2727C10.5329 31.2727 10.8158 31.1671 11.037 30.9753C11.357 30.6553 12.1058 29.5545 12.8706 28.6617C13.0732 28.4089 13.2972 28.1753 13.5426 27.9608C13.5867 27.925 13.624 27.8817 13.653 27.8328C14.6658 28.5337 15.6114 29.3305 16.4754 30.2089C16.7613 30.5033 17.0642 30.7796 17.3842 31.0377C17.565 31.1785 17.7922 31.2457 18.0226 31.2297C18.6147 31.0969 19.1619 30.8169 19.6163 30.4153C20.0963 30.0169 20.5731 29.5385 21.0355 29.0921C20.9862 29.1518 20.9495 29.2208 20.9275 29.295C20.9055 29.3693 20.8987 29.4472 20.9075 29.5241C20.9843 30.9273 21.2867 32.3113 21.8003 33.6201C22.1925 34.5554 22.8124 35.3777 23.6035 36.0122L23.7635 36.1242C23.0915 36.1082 22.6467 36.1402 22.2003 36.1402Z" fill="#7B1E3D"/>
<path fill-rule="evenodd" clip-rule="evenodd" d="M17.223 8.27077C16.6684 8.1513 16.11 8.06063 15.5478 7.99876H14.8134C14.5644 7.97437 14.3136 7.97437 14.0646 7.99876C13.5114 8.16726 12.9769 8.3919 12.4694 8.66917C12.3565 8.71814 12.2629 8.80303 12.2033 8.91064C12.1436 9.01825 12.1211 9.14256 12.1394 9.26425C12.1576 9.38594 12.2155 9.4982 12.3042 9.58358C12.3928 9.66896 12.5071 9.72268 12.6294 9.73639C13.1878 9.73639 13.6822 9.91239 14.2246 9.96039H14.8934L15.5798 9.88039L17.1734 9.51239C17.2555 9.5165 17.3376 9.50392 17.4147 9.47541C17.4918 9.4469 17.5623 9.40306 17.622 9.34652C17.6817 9.28999 17.7293 9.22195 17.7619 9.1465C17.7945 9.07105 17.8115 8.98978 17.8119 8.90758C17.8115 8.74664 17.7506 8.59174 17.6412 8.47372C17.5318 8.3557 17.3819 8.28324 17.2214 8.27077M15.6278 11.778C15.3307 11.7536 15.0321 11.7536 14.735 11.778C14.0203 11.9508 13.3185 12.1636 12.6294 12.4164C12.5553 12.4176 12.4822 12.4338 12.4146 12.4642C12.347 12.4946 12.2864 12.5385 12.2363 12.5932C12.1863 12.6479 12.148 12.7122 12.1237 12.7823C12.0995 12.8523 12.0898 12.9265 12.0952 13.0004C12.1007 13.0743 12.1212 13.1464 12.1555 13.2121C12.1898 13.2778 12.2371 13.3358 12.2946 13.3825C12.3521 13.4293 12.4186 13.4638 12.4899 13.4839C12.5612 13.504 12.6359 13.5094 12.7094 13.4996C13.4102 13.6116 14.0486 13.7716 14.767 13.8516C15.0486 13.8676 15.3302 13.8676 15.6118 13.8516C15.8988 13.8762 16.1857 13.8762 16.4726 13.8516C17.1734 13.7556 17.8279 13.6116 18.5143 13.4836C18.6035 13.4988 18.6951 13.4943 18.7824 13.4705C18.8698 13.4466 18.9509 13.404 19.0201 13.3456C19.0893 13.2872 19.1449 13.2143 19.1831 13.1322C19.2212 13.0501 19.241 12.9606 19.241 12.87C19.241 12.7795 19.2212 12.69 19.1831 12.6079C19.1449 12.5257 19.0893 12.4529 19.0201 12.3945C18.9509 12.3361 18.8698 12.2934 18.7824 12.2696C18.6951 12.2457 18.6035 12.2412 18.5143 12.2564C17.8279 12.1124 17.159 11.9684 16.4566 11.8884C16.1825 11.8372 15.9058 11.8003 15.6278 11.778Z" fill="#216587"/>
</svg>
